solid csg.js
facet normal 0 0 -1
outer loop
vertex 4.300000000000001 9 0
vertex 4.6 8.7 0
vertex 4.6 8 0
endloop
endfacet
facet normal 0 0 -1
outer loop
vertex 4.300000000000001 9 0
vertex 4.6 8 0
vertex 4.3999999999999995 7.8 0
endloop
endfacet
facet normal 0 0 -1
outer loop
vertex 4.300000000000001 9 0
vertex 4.3999999999999995 7.8 0
vertex 4.2 7.8 0
endloop
endfacet
facet normal 0 0 -1
outer loop
vertex 4.300000000000001 9 0
vertex 4.2 7.8 0
vertex 0.021117925376604833 7.8 0
endloop
endfacet
facet normal 0 0 -1
outer loop
vertex 4.300000000000001 9 0
vertex 0.021117925376604833 7.8 0
vertex 0.06525797827312879 8.078689325833263 0
endloop
endfacet
facet normal 0 0 -1
outer loop
vertex 4.300000000000001 9 0
vertex 0.06525797827312879 8.078689325833263 0
vertex 0.2546440075000695 8.450380336389962 0
endloop
endfacet
facet normal 0 0 -1
outer loop
vertex 4.300000000000001 9 0
vertex 0.2546440075000695 8.450380336389962 0
vertex 0.5496196636100346 8.74535599249993 0
endloop
endfacet
facet normal 0 0 -1
outer loop
vertex 4.300000000000001 9 0
vertex 0.5496196636100346 8.74535599249993 0
vertex 0.921310674166735 8.93474202172687 0
endloop
endfacet
facet normal 0 0 -1
outer loop
vertex 4.300000000000001 9 0
vertex 0.921310674166735 8.93474202172687 0
vertex 1.3333333333333393 9 0
endloop
endfacet
facet normal 0 0 -1
outer loop
vertex 10.666666666666666 9 0
vertex 11.078689325833263 8.93474202172687 0
vertex 11.450380336389964 8.74535599249993 0
endloop
endfacet
facet normal 0 0 -1
outer loop
vertex 10.666666666666666 9 0
vertex 11.450380336389964 8.74535599249993 0
vertex 11.745355992499928 8.450380336389962 0
endloop
endfacet
facet normal 0 0 -1
outer loop
vertex 10.666666666666666 9 0
vertex 11.745355992499928 8.450380336389962 0
vertex 11.934742021726873 8.078689325833263 0
endloop
endfacet
facet normal 0 0 -1
outer loop
vertex 10.666666666666666 9 0
vertex 11.934742021726873 8.078689325833263 0
vertex 11.978882074623396 7.8 0
endloop
endfacet
facet normal 0 0 -1
outer loop
vertex 10.666666666666666 9 0
vertex 11.978882074623396 7.8 0
vertex 7.8000000000000025 7.8 0
endloop
endfacet
facet normal 0 0 -1
outer loop
vertex 10.666666666666666 9 0
vertex 7.8000000000000025 7.8 0
vertex 7.6000000000000005 7.8 0
endloop
endfacet
facet normal 0 0 -1
outer loop
vertex 10.666666666666666 9 0
vertex 7.6000000000000005 7.8 0
vertex 7.4 8 0
endloop
endfacet
facet normal 0 0 -1
outer loop
vertex 10.666666666666666 9 0
vertex 7.4 8 0
vertex 7.4 8.7 0
endloop
endfacet
facet normal 0 0 -1
outer loop
vertex 10.666666666666666 9 0
vertex 7.4 8.7 0
vertex 7.7 9 0
endloop
endfacet
facet normal 0 0 -1
outer loop
vertex 4.2 7.8 0
vertex 4.000000000000002 7.600000000000001 0
vertex -1.6538494711657508e-16 7.600000000000001 0
endloop
endfacet
facet normal 0 0 -1
outer loop
vertex 4.2 7.8 0
vertex -1.6538494711657508e-16 7.600000000000001 0
vertex -1.6653345369377348e-16 7.666666666666666 0
endloop
endfacet
facet normal 0 0 -1
outer loop
vertex 4.2 7.8 0
vertex -1.6653345369377348e-16 7.666666666666666 0
vertex 0.021117925376604833 7.8 0
endloop
endfacet
facet normal 0 0 -1
outer loop
vertex 11.978882074623396 7.8 0
vertex 12 7.666666666666666 0
vertex 12 7.600000000000001 0
endloop
endfacet
facet normal 0 0 -1
outer loop
vertex 11.978882074623396 7.8 0
vertex 12 7.600000000000001 0
vertex 8.000000000000002 7.600000000000001 0
endloop
endfacet
facet normal 0 0 -1
outer loop
vertex 11.978882074623396 7.8 0
vertex 8.000000000000002 7.600000000000001 0
vertex 7.8000000000000025 7.8 0
endloop
endfacet
facet normal 0 0 -1
outer loop
vertex 4.000000000000002 7.600000000000001 0
vertex 4.000000000000002 4.200000000000001 0
vertex -1.0681111167945476e-16 4.200000000000001 0
endloop
endfacet
facet normal 0 0 -1
outer loop
vertex 4.000000000000002 7.600000000000001 0
vertex -1.0681111167945476e-16 4.200000000000001 0
vertex -1.6538494711657508e-16 7.600000000000001 0
endloop
endfacet
facet normal 0 0 -1
outer loop
vertex 12 7.600000000000001 0
vertex 12.000000000000002 4.200000000000001 0
vertex 8.000000000000002 4.200000000000001 0
endloop
endfacet
facet normal 0 0 -1
outer loop
vertex 12 7.600000000000001 0
vertex 8.000000000000002 4.200000000000001 0
vertex 8.000000000000002 7.600000000000001 0
endloop
endfacet
facet normal 0 0 -1
outer loop
vertex 4.000000000000002 4.200000000000001 0
vertex 4.199999999999999 4 0
vertex -1.0336559194785942e-16 4 0
endloop
endfacet
facet normal 0 0 -1
outer loop
vertex 4.000000000000002 4.200000000000001 0
vertex -1.0336559194785942e-16 4 0
vertex -1.0681111167945476e-16 4.200000000000001 0
endloop
endfacet
facet normal 0 0 -1
outer loop
vertex 12.000000000000002 4.200000000000001 0
vertex 12.000000000000002 4 0
vertex 7.800000000000001 4 0
endloop
endfacet
facet normal 0 0 -1
outer loop
vertex 12.000000000000002 4.200000000000001 0
vertex 7.800000000000001 4 0
vertex 8.000000000000002 4.200000000000001 0
endloop
endfacet
facet normal 0 0 -1
outer loop
vertex 4.199999999999999 4 0
vertex 7.800000000000001 4 0
vertex 12.000000000000002 4 0
endloop
endfacet
facet normal 0 0 -1
outer loop
vertex 4.199999999999999 4 0
vertex 12.000000000000002 4 0
vertex 12.000000000000002 1.333333333333334 0
endloop
endfacet
facet normal 0 0 -1
outer loop
vertex 4.199999999999999 4 0
vertex 12.000000000000002 1.333333333333334 0
vertex 11.93474202172687 0.9213106741667365 0
endloop
endfacet
facet normal 0 0 -1
outer loop
vertex 4.199999999999999 4 0
vertex 11.93474202172687 0.9213106741667365 0
vertex 11.745355992499935 0.5496196636100359 0
endloop
endfacet
facet normal 0 0 -1
outer loop
vertex 4.199999999999999 4 0
vertex 11.745355992499935 0.5496196636100359 0
vertex 11.450380336389966 0.2546440075000703 0
endloop
endfacet
facet normal 0 0 -1
outer loop
vertex 4.199999999999999 4 0
vertex 11.450380336389966 0.2546440075000703 0
vertex 11.078689325833263 0.06525797827312857 0
endloop
endfacet
facet normal 0 0 -1
outer loop
vertex 4.199999999999999 4 0
vertex 11.078689325833263 0.06525797827312857 0
vertex 10.666666666666671 9.71445146547012e-17 0
endloop
endfacet
facet normal 0 0 -1
outer loop
vertex 4.199999999999999 4 0
vertex 10.666666666666671 9.71445146547012e-17 0
vertex 8.000000000000002 9.71445146547012e-17 0
endloop
endfacet
facet normal 0 0 -1
outer loop
vertex 4.199999999999999 4 0
vertex 8.000000000000002 9.71445146547012e-17 0
vertex 4.000000000000002 9.71445146547012e-17 0
endloop
endfacet
facet normal 0 0 -1
outer loop
vertex 4.199999999999999 4 0
vertex 4.000000000000002 9.71445146547012e-17 0
vertex 1.3333333333333333 9.71445146547012e-17 0
endloop
endfacet
facet normal 0 0 -1
outer loop
vertex 4.199999999999999 4 0
vertex 1.3333333333333333 9.71445146547012e-17 0
vertex 0.9213106741667373 0.06525797827312857 0
endloop
endfacet
facet normal 0 0 -1
outer loop
vertex 4.199999999999999 4 0
vertex 0.9213106741667373 0.06525797827312857 0
vertex 0.5496196636100359 0.2546440075000703 0
endloop
endfacet
facet normal 0 0 -1
outer loop
vertex 4.199999999999999 4 0
vertex 0.5496196636100359 0.2546440075000703 0
vertex 0.2546440075000702 0.5496196636100359 0
endloop
endfacet
facet normal 0 0 -1
outer loop
vertex 4.199999999999999 4 0
vertex 0.2546440075000702 0.5496196636100359 0
vertex 0.06525797827312871 0.9213106741667365 0
endloop
endfacet
facet normal 0 0 -1
outer loop
vertex 4.199999999999999 4 0
vertex 0.06525797827312871 0.9213106741667365 0
vertex -5.742532885992193e-17 1.333333333333334 0
endloop
endfacet
facet normal 0 0 -1
outer loop
vertex 4.199999999999999 4 0
vertex -5.742532885992193e-17 1.333333333333334 0
vertex -1.0336559194785942e-16 4 0
endloop
endfacet
facet normal 0 0 -1
outer loop
vertex 8.000000000000002 9.71445146547012e-17 0
vertex 8.000000000000002 -1.000000000000001 0
vertex 4.000000000000002 -1.000000000000001 0
endloop
endfacet
facet normal 0 0 -1
outer loop
vertex 8.000000000000002 9.71445146547012e-17 0
vertex 4.000000000000002 -1.000000000000001 0
vertex 4.000000000000002 9.71445146547012e-17 0
endloop
endfacet
facet normal 0 0 1
outer loop
vertex 4.000000000000002 5.551115123125783e-17 15
vertex 4.000000000000002 4 15
vertex -1.3782078926381252e-16 4 15
endloop
endfacet
facet normal 0 0 1
outer loop
vertex 4.000000000000002 5.551115123125783e-17 15
vertex -1.3782078926381252e-16 4 15
vertex -7.656710514656256e-17 1.3333333333333348 15
endloop
endfacet
facet normal 0 0 1
outer loop
vertex 4.000000000000002 5.551115123125783e-17 15
vertex -7.656710514656256e-17 1.3333333333333348 15
vertex 0.0652579782731289 0.9213106741667358 15
endloop
endfacet
facet normal 0 0 1
outer loop
vertex 4.000000000000002 5.551115123125783e-17 15
vertex 0.0652579782731289 0.9213106741667358 15
vertex 0.25464400750007 0.5496196636100361 15
endloop
endfacet
facet normal 0 0 1
outer loop
vertex 4.000000000000002 5.551115123125783e-17 15
vertex 0.25464400750007 0.5496196636100361 15
vertex 0.5496196636100352 0.25464400750007066 15
endloop
endfacet
facet normal 0 0 1
outer loop
vertex 4.000000000000002 5.551115123125783e-17 15
vertex 0.5496196636100352 0.25464400750007066 15
vertex 0.9213106741667376 0.06525797827312818 15
endloop
endfacet
facet normal 0 0 1
outer loop
vertex 4.000000000000002 5.551115123125783e-17 15
vertex 0.9213106741667376 0.06525797827312818 15
vertex 1.3333333333333344 5.551115123125783e-17 15
endloop
endfacet
facet normal 0 0 1
outer loop
vertex 10.666666666666668 5.551115123125783e-17 15
vertex 11.078689325833263 0.06525797827312818 15
vertex 11.450380336389966 0.25464400750007066 15
endloop
endfacet
facet normal 0 0 1
outer loop
vertex 10.666666666666668 5.551115123125783e-17 15
vertex 11.450380336389966 0.25464400750007066 15
vertex 11.745355992499931 0.5496196636100361 15
endloop
endfacet
facet normal 0 0 1
outer loop
vertex 10.666666666666668 5.551115123125783e-17 15
vertex 11.745355992499931 0.5496196636100361 15
vertex 11.934742021726871 0.9213106741667358 15
endloop
endfacet
facet normal 0 0 1
outer loop
vertex 10.666666666666668 5.551115123125783e-17 15
vertex 11.934742021726871 0.9213106741667358 15
vertex 12.000000000000002 1.3333333333333348 15
endloop
endfacet
facet normal 0 0 1
outer loop
vertex 10.666666666666668 5.551115123125783e-17 15
vertex 12.000000000000002 1.3333333333333348 15
vertex 12.000000000000002 4 15
endloop
endfacet
facet normal 0 0 1
outer loop
vertex 10.666666666666668 5.551115123125783e-17 15
vertex 12.000000000000002 4 15
vertex 8.000000000000002 4 15
endloop
endfacet
facet normal 0 0 1
outer loop
vertex 10.666666666666668 5.551115123125783e-17 15
vertex 8.000000000000002 4 15
vertex 8.000000000000002 5.551115123125783e-17 15
endloop
endfacet
facet normal 0 0 1
outer loop
vertex 4.000000000000002 4 15
vertex 4.200000000000001 4 15
vertex 4.000000000000002 4.200000000000001 15
endloop
endfacet
facet normal 0 0 1
outer loop
vertex 4.000000000000002 4 15
vertex 4.000000000000002 4.200000000000001 15
vertex -1.424148155726063e-16 4.200000000000001 15
endloop
endfacet
facet normal 0 0 1
outer loop
vertex 4.000000000000002 4 15
vertex -1.424148155726063e-16 4.200000000000001 15
vertex -1.3782078926381252e-16 4 15
endloop
endfacet
facet normal 0 0 1
outer loop
vertex 8.000000000000002 4 15
vertex 12.000000000000002 4 15
vertex 12.000000000000002 4.200000000000001 15
endloop
endfacet
facet normal 0 0 1
outer loop
vertex 8.000000000000002 4 15
vertex 12.000000000000002 4.200000000000001 15
vertex 8.000000000000002 4.200000000000001 15
endloop
endfacet
facet normal 0 0 1
outer loop
vertex 8.000000000000002 4 15
vertex 8.000000000000002 4.200000000000001 15
vertex 7.800000000000001 4 15
endloop
endfacet
facet normal 0 0 1
outer loop
vertex 4.000000000000002 4.200000000000001 15
vertex 4.000000000000002 7.600000000000001 15
vertex -2.2051326282210005e-16 7.600000000000001 15
endloop
endfacet
facet normal 0 0 1
outer loop
vertex 4.000000000000002 4.200000000000001 15
vertex -2.2051326282210005e-16 7.600000000000001 15
vertex -1.424148155726063e-16 4.200000000000001 15
endloop
endfacet
facet normal 0 0 1
outer loop
vertex 12.000000000000002 4.200000000000001 15
vertex 12 7.600000000000001 15
vertex 8.000000000000002 7.600000000000001 15
endloop
endfacet
facet normal 0 0 1
outer loop
vertex 12.000000000000002 4.200000000000001 15
vertex 8.000000000000002 7.600000000000001 15
vertex 8.000000000000002 4.200000000000001 15
endloop
endfacet
facet normal 0 0 1
outer loop
vertex 4.000000000000002 7.600000000000001 15
vertex 4.199999999999999 7.8 15
vertex 0.021117925376604497 7.8 15
endloop
endfacet
facet normal 0 0 1
outer loop
vertex 4.000000000000002 7.600000000000001 15
vertex 0.021117925376604497 7.8 15
vertex -2.220446049250313e-16 7.666666666666668 15
endloop
endfacet
facet normal 0 0 1
outer loop
vertex 4.000000000000002 7.600000000000001 15
vertex -2.220446049250313e-16 7.666666666666668 15
vertex -2.2051326282210005e-16 7.600000000000001 15
endloop
endfacet
facet normal 0 0 1
outer loop
vertex 12 7.600000000000001 15
vertex 12 7.666666666666668 15
vertex 11.978882074623396 7.8 15
endloop
endfacet
facet normal 0 0 1
outer loop
vertex 12 7.600000000000001 15
vertex 11.978882074623396 7.8 15
vertex 7.800000000000001 7.8 15
endloop
endfacet
facet normal 0 0 1
outer loop
vertex 12 7.600000000000001 15
vertex 7.800000000000001 7.8 15
vertex 8.000000000000002 7.600000000000001 15
endloop
endfacet
facet normal 0 0 1
outer loop
vertex 4.199999999999999 7.8 15
vertex 4.399999999999999 7.8 15
vertex 4.6 8.000000000000002 15
endloop
endfacet
facet normal 0 0 1
outer loop
vertex 4.199999999999999 7.8 15
vertex 4.6 8.000000000000002 15
vertex 4.6 8.7 15
endloop
endfacet
facet normal 0 0 1
outer loop
vertex 4.199999999999999 7.8 15
vertex 4.6 8.7 15
vertex 4.300000000000001 9 15
endloop
endfacet
facet normal 0 0 1
outer loop
vertex 4.199999999999999 7.8 15
vertex 4.300000000000001 9 15
vertex 1.3333333333333421 9 15
endloop
endfacet
facet normal 0 0 1
outer loop
vertex 4.199999999999999 7.8 15
vertex 1.3333333333333421 9 15
vertex 0.9213106741667327 8.93474202172687 15
endloop
endfacet
facet normal 0 0 1
outer loop
vertex 4.199999999999999 7.8 15
vertex 0.9213106741667327 8.93474202172687 15
vertex 0.5496196636100366 8.745355992499931 15
endloop
endfacet
facet normal 0 0 1
outer loop
vertex 4.199999999999999 7.8 15
vertex 0.5496196636100366 8.745355992499931 15
vertex 0.2546440075000709 8.450380336389964 15
endloop
endfacet
facet normal 0 0 1
outer loop
vertex 4.199999999999999 7.8 15
vertex 0.2546440075000709 8.450380336389964 15
vertex 0.06525797827312818 8.078689325833261 15
endloop
endfacet
facet normal 0 0 1
outer loop
vertex 4.199999999999999 7.8 15
vertex 0.06525797827312818 8.078689325833261 15
vertex 0.021117925376604497 7.8 15
endloop
endfacet
facet normal 0 0 1
outer loop
vertex 7.800000000000001 7.8 15
vertex 11.978882074623396 7.8 15
vertex 11.934742021726873 8.078689325833261 15
endloop
endfacet
facet normal 0 0 1
outer loop
vertex 7.800000000000001 7.8 15
vertex 11.934742021726873 8.078689325833261 15
vertex 11.745355992499926 8.450380336389964 15
endloop
endfacet
facet normal 0 0 1
outer loop
vertex 7.800000000000001 7.8 15
vertex 11.745355992499926 8.450380336389964 15
vertex 11.45038033638997 8.745355992499931 15
endloop
endfacet
facet normal 0 0 1
outer loop
vertex 7.800000000000001 7.8 15
vertex 11.45038033638997 8.745355992499931 15
vertex 11.078689325833263 8.93474202172687 15
endloop
endfacet
facet normal 0 0 1
outer loop
vertex 7.800000000000001 7.8 15
vertex 11.078689325833263 8.93474202172687 15
vertex 10.666666666666657 9 15
endloop
endfacet
facet normal 0 0 1
outer loop
vertex 7.800000000000001 7.8 15
vertex 10.666666666666657 9 15
vertex 7.699999999999999 9 15
endloop
endfacet
facet normal 0 0 1
outer loop
vertex 7.800000000000001 7.8 15
vertex 7.699999999999999 9 15
vertex 7.4 8.7 15
endloop
endfacet
facet normal 0 0 1
outer loop
vertex 7.800000000000001 7.8 15
vertex 7.4 8.7 15
vertex 7.4 8.000000000000002 15
endloop
endfacet
facet normal 0 0 1
outer loop
vertex 7.800000000000001 7.8 15
vertex 7.4 8.000000000000002 15
vertex 7.600000000000001 7.8 15
endloop
endfacet
facet normal -1 0 0
outer loop
vertex 4.000000000000002 4 20
vertex 4.000000000000002 4 15
vertex 4.000000000000002 5.551115123125783e-17 15
endloop
endfacet
facet normal -1 0 0
outer loop
vertex 4.000000000000002 4 20
vertex 4.000000000000002 5.551115123125783e-17 15
vertex 4.000000000000002 -1.0000000000000013 15
endloop
endfacet
facet normal -1 0 0
outer loop
vertex 4.000000000000002 4 20
vertex 4.000000000000002 -1.0000000000000013 15
vertex 4.000000000000002 -1.0000000000000013 20
endloop
endfacet
facet normal -1 0 0
outer loop
vertex 4.000000000000002 5.551115123125783e-17 15
vertex 4.000000000000002 9.71445146547012e-17 0
vertex 4.000000000000002 -1.000000000000001 0
endloop
endfacet
facet normal -1 0 0
outer loop
vertex 4.000000000000002 5.551115123125783e-17 15
vertex 4.000000000000002 -1.000000000000001 0
vertex 4.000000000000002 -1.0000000000000013 15
endloop
endfacet
facet normal 2.7755575615628914e-16 -1 1.7763568394002506e-16
outer loop
vertex 8.000000000000002 -1.000000000000001 15
vertex 8.000000000000002 -1.0000000000000002 20
vertex 4.000000000000002 -1.0000000000000013 20
endloop
endfacet
facet normal 2.7755575615628914e-16 -1 1.7763568394002506e-16
outer loop
vertex 8.000000000000002 -1.000000000000001 15
vertex 4.000000000000002 -1.0000000000000013 20
vertex 4.000000000000002 -1.0000000000000013 15
endloop
endfacet
facet normal 2.7755575615628914e-16 -1 1.7763568394002506e-16
outer loop
vertex 8.000000000000002 -1.000000000000001 15
vertex 4.000000000000002 -1.0000000000000013 15
vertex 4.000000000000002 -1.000000000000001 0
endloop
endfacet
facet normal 2.7755575615628914e-16 -1 1.7763568394002506e-16
outer loop
vertex 8.000000000000002 -1.000000000000001 15
vertex 4.000000000000002 -1.000000000000001 0
vertex 8.000000000000002 -1.000000000000001 0
endloop
endfacet
facet normal 1 0 0
outer loop
vertex 8.000000000000002 9.71445146547012e-17 0
vertex 8.000000000000002 5.551115123125783e-17 15
vertex 8.000000000000002 -1.000000000000001 15
endloop
endfacet
facet normal 1 0 0
outer loop
vertex 8.000000000000002 9.71445146547012e-17 0
vertex 8.000000000000002 -1.000000000000001 15
vertex 8.000000000000002 -1.000000000000001 0
endloop
endfacet
facet normal 1 0 0
outer loop
vertex 8.000000000000002 5.551115123125783e-17 15
vertex 8.000000000000002 4 15
vertex 8.000000000000002 4 20
endloop
endfacet
facet normal 1 0 0
outer loop
vertex 8.000000000000002 5.551115123125783e-17 15
vertex 8.000000000000002 4 20
vertex 8.000000000000002 -1.0000000000000002 20
endloop
endfacet
facet normal 1 0 0
outer loop
vertex 8.000000000000002 5.551115123125783e-17 15
vertex 8.000000000000002 -1.0000000000000002 20
vertex 8.000000000000002 -1.000000000000001 15
endloop
endfacet
facet normal 1.8369701987210312e-16 -1 0
outer loop
vertex 10.666666666666668 5.551115123125783e-17 15
vertex 8.000000000000002 5.551115123125783e-17 15
vertex 8.000000000000002 9.71445146547012e-17 0
endloop
endfacet
facet normal 1.8369701987210312e-16 -1 0
outer loop
vertex 10.666666666666668 5.551115123125783e-17 15
vertex 8.000000000000002 9.71445146547012e-17 0
vertex 10.666666666666671 9.71445146547012e-17 0
endloop
endfacet
facet normal 1.8369701987210312e-16 -1 0
outer loop
vertex 4.000000000000002 5.551115123125783e-17 15
vertex 1.3333333333333344 5.551115123125783e-17 15
vertex 1.3333333333333333 9.71445146547012e-17 0
endloop
endfacet
facet normal 1.8369701987210312e-16 -1 0
outer loop
vertex 4.000000000000002 5.551115123125783e-17 15
vertex 1.3333333333333333 9.71445146547012e-17 0
vertex 4.000000000000002 9.71445146547012e-17 0
endloop
endfacet
facet normal 0.15643446504023073 -0.9876883405951378 0
outer loop
vertex 11.078689325833263 0.06525797827312818 15
vertex 10.666666666666668 5.551115123125783e-17 15
vertex 10.666666666666671 9.71445146547012e-17 0
endloop
endfacet
facet normal 0.15643446504023073 -0.9876883405951378 0
outer loop
vertex 11.078689325833263 0.06525797827312818 15
vertex 10.666666666666671 9.71445146547012e-17 0
vertex 11.078689325833263 0.06525797827312857 0
endloop
endfacet
facet normal 0.4539904997395475 -0.8910065241883676 0
outer loop
vertex 11.450380336389966 0.25464400750007066 15
vertex 11.078689325833263 0.06525797827312818 15
vertex 11.078689325833263 0.06525797827312857 0
endloop
endfacet
facet normal 0.4539904997395475 -0.8910065241883676 0
outer loop
vertex 11.450380336389966 0.25464400750007066 15
vertex 11.078689325833263 0.06525797827312857 0
vertex 11.450380336389966 0.2546440075000703 0
endloop
endfacet
facet normal 0.7071067811865479 -0.707106781186547 0
outer loop
vertex 11.745355992499931 0.5496196636100361 15
vertex 11.450380336389966 0.25464400750007066 15
vertex 11.450380336389966 0.2546440075000703 0
endloop
endfacet
facet normal 0.7071067811865479 -0.707106781186547 0
outer loop
vertex 11.745355992499931 0.5496196636100361 15
vertex 11.450380336389966 0.2546440075000703 0
vertex 11.745355992499935 0.5496196636100359 0
endloop
endfacet
facet normal 0.8910065241883678 -0.45399049973954697 0
outer loop
vertex 11.934742021726871 0.9213106741667358 15
vertex 11.745355992499931 0.5496196636100361 15
vertex 11.745355992499935 0.5496196636100359 0
endloop
endfacet
facet normal 0.8910065241883678 -0.45399049973954697 0
outer loop
vertex 11.934742021726871 0.9213106741667358 15
vertex 11.745355992499935 0.5496196636100359 0
vertex 11.93474202172687 0.9213106741667365 0
endloop
endfacet
facet normal 0.9876883405951377 -0.1564344650402312 0
outer loop
vertex 12.000000000000002 1.3333333333333348 15
vertex 11.934742021726871 0.9213106741667358 15
vertex 11.93474202172687 0.9213106741667365 0
endloop
endfacet
facet normal 0.9876883405951377 -0.1564344650402312 0
outer loop
vertex 12.000000000000002 1.3333333333333348 15
vertex 11.93474202172687 0.9213106741667365 0
vertex 12.000000000000002 1.333333333333334 0
endloop
endfacet
facet normal 0 0 1
outer loop
vertex 12.000000000000002 4 0
vertex 12.000000000000002 4.200000000000001 0
vertex 12 7.600000000000001 0
endloop
endfacet
facet normal 0 0 1
outer loop
vertex 12.000000000000002 4 0
vertex 12 7.600000000000001 0
vertex 12 7.666666666666666 0
endloop
endfacet
facet normal 0 0 1
outer loop
vertex 12.000000000000002 4 0
vertex 12 7.666666666666666 0
vertex 12 7.666666666666668 15
endloop
endfacet
facet normal 0 0 1
outer loop
vertex 12.000000000000002 4 0
vertex 12 7.666666666666668 15
vertex 12 7.600000000000001 15
endloop
endfacet
facet normal 0 0 1
outer loop
vertex 12.000000000000002 4 0
vertex 12 7.600000000000001 15
vertex 12.000000000000002 4.200000000000001 15
endloop
endfacet
facet normal 0 0 1
outer loop
vertex 12.000000000000002 4 0
vertex 12.000000000000002 4.200000000000001 15
vertex 12.000000000000002 4 15
endloop
endfacet
facet normal 0 0 1
outer loop
vertex 12.000000000000002 4 0
vertex 12.000000000000002 4 15
vertex 12.000000000000002 1.3333333333333348 15
endloop
endfacet
facet normal 0 0 1
outer loop
vertex 12.000000000000002 4 0
vertex 12.000000000000002 1.3333333333333348 15
vertex 12.000000000000002 1.333333333333334 0
endloop
endfacet
facet normal 0 0 -1
outer loop
vertex 11.934742021726873 8.078689325833261 15
vertex 11.978882074623396 7.8 15
vertex 12 7.666666666666668 15
endloop
endfacet
facet normal 0 0 -1
outer loop
vertex 11.934742021726873 8.078689325833261 15
vertex 12 7.666666666666668 15
vertex 12 7.666666666666666 0
endloop
endfacet
facet normal 0 0 -1
outer loop
vertex 11.934742021726873 8.078689325833261 15
vertex 12 7.666666666666666 0
vertex 11.978882074623396 7.8 0
endloop
endfacet
facet normal 0 0 -1
outer loop
vertex 11.934742021726873 8.078689325833261 15
vertex 11.978882074623396 7.8 0
vertex 11.934742021726873 8.078689325833263 0
endloop
endfacet
facet normal 0.8910065241883678 0.45399049973954697 0
outer loop
vertex 11.745355992499926 8.450380336389964 15
vertex 11.934742021726873 8.078689325833261 15
vertex 11.934742021726873 8.078689325833263 0
endloop
endfacet
facet normal 0.8910065241883678 0.45399049973954697 0
outer loop
vertex 11.745355992499926 8.450380336389964 15
vertex 11.934742021726873 8.078689325833263 0
vertex 11.745355992499928 8.450380336389962 0
endloop
endfacet
facet normal 0.7071067811865477 0.7071067811865477 0
outer loop
vertex 11.45038033638997 8.745355992499931 15
vertex 11.745355992499926 8.450380336389964 15
vertex 11.745355992499928 8.450380336389962 0
endloop
endfacet
facet normal 0.7071067811865477 0.7071067811865477 0
outer loop
vertex 11.45038033638997 8.745355992499931 15
vertex 11.745355992499928 8.450380336389962 0
vertex 11.450380336389964 8.74535599249993 0
endloop
endfacet
facet normal 0.45399049973954697 0.8910065241883678 0
outer loop
vertex 11.078689325833263 8.93474202172687 15
vertex 11.45038033638997 8.745355992499931 15
vertex 11.450380336389964 8.74535599249993 0
endloop
endfacet
facet normal 0.45399049973954697 0.8910065241883678 0
outer loop
vertex 11.078689325833263 8.93474202172687 15
vertex 11.450380336389964 8.74535599249993 0
vertex 11.078689325833263 8.93474202172687 0
endloop
endfacet
facet normal 0.15643446504023123 0.9876883405951377 0
outer loop
vertex 10.666666666666657 9 15
vertex 11.078689325833263 8.93474202172687 15
vertex 11.078689325833263 8.93474202172687 0
endloop
endfacet
facet normal 0.15643446504023123 0.9876883405951377 0
outer loop
vertex 10.666666666666657 9 15
vertex 11.078689325833263 8.93474202172687 0
vertex 10.666666666666666 9 0
endloop
endfacet
facet normal 0 1 0
outer loop
vertex 4.300000000000001 9 15
vertex 4.300000000000001 9 0
vertex 1.3333333333333393 9 0
endloop
endfacet
facet normal 0 1 0
outer loop
vertex 4.300000000000001 9 15
vertex 1.3333333333333393 9 0
vertex 1.3333333333333421 9 15
endloop
endfacet
facet normal 0 1 0
outer loop
vertex 10.666666666666657 9 15
vertex 10.666666666666666 9 0
vertex 7.7 9 0
endloop
endfacet
facet normal 0 1 0
outer loop
vertex 10.666666666666657 9 15
vertex 7.7 9 0
vertex 7.699999999999999 9 15
endloop
endfacet
facet normal -0.7071067811865486 0.7071067811865465 0
outer loop
vertex 7.4 8.7 15
vertex 7.699999999999999 9 15
vertex 7.7 9 0
endloop
endfacet
facet normal -0.7071067811865486 0.7071067811865465 0
outer loop
vertex 7.4 8.7 15
vertex 7.7 9 0
vertex 7.4 8.7 0
endloop
endfacet
facet normal -1 0 0
outer loop
vertex 7.4 8.7 15
vertex 7.4 8.7 0
vertex 7.4 8 0
endloop
endfacet
facet normal -1 0 0
outer loop
vertex 7.4 8.7 15
vertex 7.4 8 0
vertex 7.4 8.000000000000002 15
endloop
endfacet
facet normal -0.7071067811865477 -0.7071067811865477 0
outer loop
vertex 7.600000000000001 7.8 15
vertex 7.4 8.000000000000002 15
vertex 7.4 8 0
endloop
endfacet
facet normal -0.7071067811865477 -0.7071067811865477 0
outer loop
vertex 7.600000000000001 7.8 15
vertex 7.4 8 0
vertex 7.6000000000000005 7.8 0
endloop
endfacet
facet normal 0 -1 0
outer loop
vertex 4.3999999999999995 7.8 0
vertex 4.399999999999999 7.8 15
vertex 4.199999999999999 7.8 15
endloop
endfacet
facet normal 0 -1 0
outer loop
vertex 4.3999999999999995 7.8 0
vertex 4.199999999999999 7.8 15
vertex 4.2 7.8 0
endloop
endfacet
facet normal 0 -1 0
outer loop
vertex 7.8000000000000025 7.8 0
vertex 7.800000000000001 7.8 15
vertex 7.600000000000001 7.8 15
endloop
endfacet
facet normal 0 -1 0
outer loop
vertex 7.8000000000000025 7.8 0
vertex 7.600000000000001 7.8 15
vertex 7.6000000000000005 7.8 0
endloop
endfacet
facet normal -0.7071067811865477 -0.7071067811865477 0
outer loop
vertex 8.000000000000002 7.600000000000001 15
vertex 7.800000000000001 7.8 15
vertex 7.8000000000000025 7.8 0
endloop
endfacet
facet normal -0.7071067811865477 -0.7071067811865477 0
outer loop
vertex 8.000000000000002 7.600000000000001 15
vertex 7.8000000000000025 7.8 0
vertex 8.000000000000002 7.600000000000001 0
endloop
endfacet
facet normal -1 0 0
outer loop
vertex 8.000000000000002 7.600000000000001 15
vertex 8.000000000000002 7.600000000000001 0
vertex 8.000000000000002 4.200000000000001 0
endloop
endfacet
facet normal -1 0 0
outer loop
vertex 8.000000000000002 7.600000000000001 15
vertex 8.000000000000002 4.200000000000001 0
vertex 8.000000000000002 4.200000000000001 15
endloop
endfacet
facet normal -0.7071067811865475 0.7071067811865475 0
outer loop
vertex 7.800000000000001 4 15
vertex 8.000000000000002 4.200000000000001 15
vertex 8.000000000000002 4.200000000000001 0
endloop
endfacet
facet normal -0.7071067811865475 0.7071067811865475 0
outer loop
vertex 7.800000000000001 4 15
vertex 8.000000000000002 4.200000000000001 0
vertex 7.800000000000001 4 0
endloop
endfacet
facet normal 0 1 0
outer loop
vertex 8.000000000000002 4 20
vertex 8.000000000000002 4 15
vertex 7.800000000000001 4 15
endloop
endfacet
facet normal 0 1 0
outer loop
vertex 8.000000000000002 4 20
vertex 7.800000000000001 4 15
vertex 4.200000000000001 4 15
endloop
endfacet
facet normal 0 1 0
outer loop
vertex 8.000000000000002 4 20
vertex 4.200000000000001 4 15
vertex 4.000000000000002 4 15
endloop
endfacet
facet normal 0 1 0
outer loop
vertex 8.000000000000002 4 20
vertex 4.000000000000002 4 15
vertex 4.000000000000002 4 20
endloop
endfacet
facet normal 0 1 0
outer loop
vertex 7.800000000000001 4 15
vertex 7.800000000000001 4 0
vertex 4.199999999999999 4 0
endloop
endfacet
facet normal 0 1 0
outer loop
vertex 7.800000000000001 4 15
vertex 4.199999999999999 4 0
vertex 4.200000000000001 4 15
endloop
endfacet
facet normal 0.7071067811865478 0.7071067811865474 0
outer loop
vertex 4.000000000000002 4.200000000000001 15
vertex 4.200000000000001 4 15
vertex 4.199999999999999 4 0
endloop
endfacet
facet normal 0.7071067811865478 0.7071067811865474 0
outer loop
vertex 4.000000000000002 4.200000000000001 15
vertex 4.199999999999999 4 0
vertex 4.000000000000002 4.200000000000001 0
endloop
endfacet
facet normal 1 0 0
outer loop
vertex 4.000000000000002 7.600000000000001 0
vertex 4.000000000000002 7.600000000000001 15
vertex 4.000000000000002 4.200000000000001 15
endloop
endfacet
facet normal 1 0 0
outer loop
vertex 4.000000000000002 7.600000000000001 0
vertex 4.000000000000002 4.200000000000001 15
vertex 4.000000000000002 4.200000000000001 0
endloop
endfacet
facet normal 0.7071067811865483 -0.7071067811865468 0
outer loop
vertex 4.199999999999999 7.8 15
vertex 4.000000000000002 7.600000000000001 15
vertex 4.000000000000002 7.600000000000001 0
endloop
endfacet
facet normal 0.7071067811865483 -0.7071067811865468 0
outer loop
vertex 4.199999999999999 7.8 15
vertex 4.000000000000002 7.600000000000001 0
vertex 4.2 7.8 0
endloop
endfacet
facet normal 0.7071067811865477 -0.7071067811865475 0
outer loop
vertex 4.6 8.000000000000002 15
vertex 4.399999999999999 7.8 15
vertex 4.3999999999999995 7.8 0
endloop
endfacet
facet normal 0.7071067811865477 -0.7071067811865475 0
outer loop
vertex 4.6 8.000000000000002 15
vertex 4.3999999999999995 7.8 0
vertex 4.6 8 0
endloop
endfacet
facet normal 1 0 0
outer loop
vertex 4.6 8.7 0
vertex 4.6 8.7 15
vertex 4.6 8.000000000000002 15
endloop
endfacet
facet normal 1 0 0
outer loop
vertex 4.6 8.7 0
vertex 4.6 8.000000000000002 15
vertex 4.6 8 0
endloop
endfacet
facet normal 0.7071067811865485 0.7071067811865467 0
outer loop
vertex 4.300000000000001 9 15
vertex 4.6 8.7 15
vertex 4.6 8.7 0
endloop
endfacet
facet normal 0.7071067811865485 0.7071067811865467 0
outer loop
vertex 4.300000000000001 9 15
vertex 4.6 8.7 0
vertex 4.300000000000001 9 0
endloop
endfacet
facet normal -0.1564344650402312 0.9876883405951377 0
outer loop
vertex 0.9213106741667327 8.93474202172687 15
vertex 1.3333333333333421 9 15
vertex 1.3333333333333393 9 0
endloop
endfacet
facet normal -0.1564344650402312 0.9876883405951377 0
outer loop
vertex 0.9213106741667327 8.93474202172687 15
vertex 1.3333333333333393 9 0
vertex 0.921310674166735 8.93474202172687 0
endloop
endfacet
facet normal -0.45399049973954325 0.8910065241883697 0
outer loop
vertex 0.5496196636100366 8.745355992499931 15
vertex 0.9213106741667327 8.93474202172687 15
vertex 0.921310674166735 8.93474202172687 0
endloop
endfacet
facet normal -0.45399049973954325 0.8910065241883697 0
outer loop
vertex 0.5496196636100366 8.745355992499931 15
vertex 0.921310674166735 8.93474202172687 0
vertex 0.5496196636100346 8.74535599249993 0
endloop
endfacet
facet normal -0.7071067811865491 0.707106781186546 0
outer loop
vertex 0.2546440075000709 8.450380336389964 15
vertex 0.5496196636100366 8.745355992499931 15
vertex 0.5496196636100346 8.74535599249993 0
endloop
endfacet
facet normal -0.7071067811865491 0.707106781186546 0
outer loop
vertex 0.2546440075000709 8.450380336389964 15
vertex 0.5496196636100346 8.74535599249993 0
vertex 0.2546440075000695 8.450380336389962 0
endloop
endfacet
facet normal -0.891006524188368 0.45399049973954675 0
outer loop
vertex 0.06525797827312818 8.078689325833261 15
vertex 0.2546440075000709 8.450380336389964 15
vertex 0.2546440075000695 8.450380336389962 0
endloop
endfacet
facet normal -0.891006524188368 0.45399049973954675 0
outer loop
vertex 0.06525797827312818 8.078689325833261 15
vertex 0.2546440075000695 8.450380336389962 0
vertex 0.06525797827312879 8.078689325833263 0
endloop
endfacet
facet normal -0.9876883405951377 0.15643446504023156 -2.141707689223724e-17
outer loop
vertex -2.220446049250313e-16 7.666666666666668 15
vertex 0.021117925376604497 7.8 15
vertex 0.06525797827312818 8.078689325833261 15
endloop
endfacet
facet normal -0.9876883405951377 0.15643446504023156 -2.141707689223724e-17
outer loop
vertex -2.220446049250313e-16 7.666666666666668 15
vertex 0.06525797827312818 8.078689325833261 15
vertex 0.06525797827312879 8.078689325833263 0
endloop
endfacet
facet normal -0.9876883405951377 0.15643446504023156 -2.141707689223724e-17
outer loop
vertex -2.220446049250313e-16 7.666666666666668 15
vertex 0.06525797827312879 8.078689325833263 0
vertex 0.021117925376604833 7.8 0
endloop
endfacet
facet normal -0.9876883405951377 0.15643446504023156 -2.141707689223724e-17
outer loop
vertex -2.220446049250313e-16 7.666666666666668 15
vertex 0.021117925376604833 7.8 0
vertex -1.6653345369377348e-16 7.666666666666666 0
endloop
endfacet
facet normal 0 0 1
outer loop
vertex -7.656710514656256e-17 1.3333333333333348 15
vertex -1.3782078926381252e-16 4 15
vertex -1.424148155726063e-16 4.200000000000001 15
endloop
endfacet
facet normal 0 0 1
outer loop
vertex -7.656710514656256e-17 1.3333333333333348 15
vertex -1.424148155726063e-16 4.200000000000001 15
vertex -2.2051326282210005e-16 7.600000000000001 15
endloop
endfacet
facet normal 0 0 1
outer loop
vertex -7.656710514656256e-17 1.3333333333333348 15
vertex -2.2051326282210005e-16 7.600000000000001 15
vertex -2.220446049250313e-16 7.666666666666668 15
endloop
endfacet
facet normal 0 0 1
outer loop
vertex -7.656710514656256e-17 1.3333333333333348 15
vertex -2.220446049250313e-16 7.666666666666668 15
vertex -1.6653345369377348e-16 7.666666666666666 0
endloop
endfacet
facet normal 0 0 1
outer loop
vertex -7.656710514656256e-17 1.3333333333333348 15
vertex -1.6653345369377348e-16 7.666666666666666 0
vertex -1.6538494711657508e-16 7.600000000000001 0
endloop
endfacet
facet normal 0 0 1
outer loop
vertex -7.656710514656256e-17 1.3333333333333348 15
vertex -1.6538494711657508e-16 7.600000000000001 0
vertex -1.0681111167945476e-16 4.200000000000001 0
endloop
endfacet
facet normal 0 0 1
outer loop
vertex -7.656710514656256e-17 1.3333333333333348 15
vertex -1.0681111167945476e-16 4.200000000000001 0
vertex -1.0336559194785942e-16 4 0
endloop
endfacet
facet normal 0 0 1
outer loop
vertex -7.656710514656256e-17 1.3333333333333348 15
vertex -1.0336559194785942e-16 4 0
vertex -5.742532885992193e-17 1.333333333333334 0
endloop
endfacet
facet normal -0.9876883405951378 -0.15643446504023095 0
outer loop
vertex 0.0652579782731289 0.9213106741667358 15
vertex -7.656710514656256e-17 1.3333333333333348 15
vertex -5.742532885992193e-17 1.333333333333334 0
endloop
endfacet
facet normal -0.9876883405951378 -0.15643446504023095 0
outer loop
vertex 0.0652579782731289 0.9213106741667358 15
vertex -5.742532885992193e-17 1.333333333333334 0
vertex 0.06525797827312871 0.9213106741667365 0
endloop
endfacet
facet normal -0.8910065241883678 -0.4539904997395471 0
outer loop
vertex 0.25464400750007 0.5496196636100361 15
vertex 0.0652579782731289 0.9213106741667358 15
vertex 0.06525797827312871 0.9213106741667365 0
endloop
endfacet
facet normal -0.8910065241883678 -0.4539904997395471 0
outer loop
vertex 0.25464400750007 0.5496196636100361 15
vertex 0.06525797827312871 0.9213106741667365 0
vertex 0.2546440075000702 0.5496196636100359 0
endloop
endfacet
facet normal -0.7071067811865475 -0.7071067811865475 0
outer loop
vertex 0.5496196636100352 0.25464400750007066 15
vertex 0.25464400750007 0.5496196636100361 15
vertex 0.2546440075000702 0.5496196636100359 0
endloop
endfacet
facet normal -0.7071067811865475 -0.7071067811865475 0
outer loop
vertex 0.5496196636100352 0.25464400750007066 15
vertex 0.2546440075000702 0.5496196636100359 0
vertex 0.5496196636100359 0.2546440075000703 0
endloop
endfacet
facet normal -0.45399049973954675 -0.8910065241883679 0
outer loop
vertex 0.9213106741667376 0.06525797827312818 15
vertex 0.5496196636100352 0.25464400750007066 15
vertex 0.5496196636100359 0.2546440075000703 0
endloop
endfacet
facet normal -0.45399049973954675 -0.8910065241883679 0
outer loop
vertex 0.9213106741667376 0.06525797827312818 15
vertex 0.5496196636100359 0.2546440075000703 0
vertex 0.9213106741667373 0.06525797827312857 0
endloop
endfacet
facet normal -0.1564344650402308 -0.9876883405951378 0
outer loop
vertex 1.3333333333333344 5.551115123125783e-17 15
vertex 0.9213106741667376 0.06525797827312818 15
vertex 0.9213106741667373 0.06525797827312857 0
endloop
endfacet
facet normal -0.1564344650402308 -0.9876883405951378 0
outer loop
vertex 1.3333333333333344 5.551115123125783e-17 15
vertex 0.9213106741667373 0.06525797827312857 0
vertex 1.3333333333333333 9.71445146547012e-17 0
endloop
endfacet
facet normal 0 0 1
outer loop
vertex 4.000000000000002 4 20
vertex 4.000000000000002 -1.0000000000000013 20
vertex 8.000000000000002 -1.0000000000000002 20
endloop
endfacet
facet normal 0 0 1
outer loop
vertex 4.000000000000002 4 20
vertex 8.000000000000002 -1.0000000000000002 20
vertex 8.000000000000002 4 20
endloop
endfacet
endsolid csg.js
